<?xml version="1.0" encoding="UTF-8" standalone="no"?>
<svg
   xmlns:dc="http://purl.org/dc/elements/1.1/"
   xmlns:cc="http://creativecommons.org/ns#"
   xmlns:rdf="http://www.w3.org/1999/02/22-rdf-syntax-ns#"
   xmlns:svg="http://www.w3.org/2000/svg"
   xmlns="http://www.w3.org/2000/svg"
   viewBox="0 0 415.74799 226.772"
   height="226.772"
   width="415.74799"
   xml:space="preserve"
   id="svg2"
   version="1.1"><metadata
     id="metadata8"><rdf:RDF><cc:Work
         rdf:about=""><dc:format>image/svg+xml</dc:format><dc:type
           rdf:resource="http://purl.org/dc/dcmitype/StillImage" /></cc:Work></rdf:RDF></metadata><defs
     id="defs6"><clipPath
       id="clipPath18"
       clipPathUnits="userSpaceOnUse"><path
         id="path16"
         d="M 0,170.079 H 311.811 V 0 H 0 Z" /></clipPath></defs><g
     transform="matrix(1.3333333,0,0,-1.3333333,0,226.772)"
     id="g10"><g
       id="g12"><g
         clip-path="url(#clipPath18)"
         id="g14"><g
           transform="translate(45.4753,32.5369)"
           id="g20"><path
             id="path22"
             style="fill:#2b2b2a;fill-opacity:1;fill-rule:nonzero;stroke:none"
             d="m 0,0 c 0.391,0 0.756,0.072 1.098,0.219 0.341,0.145 0.641,0.349 0.897,0.61 0.256,0.26 0.458,0.562 0.604,0.903 0.146,0.342 0.22,0.703 0.22,1.085 0,0.384 -0.074,0.746 -0.22,1.088 C 2.453,4.246 2.25,4.547 1.989,4.807 1.729,5.067 1.428,5.271 1.086,5.417 0.745,5.562 0.382,5.638 0,5.638 H -1.416 V 0 Z M -2.819,7.052 H 0 C 0.577,7.052 1.123,6.939 1.635,6.717 2.147,6.494 2.597,6.187 2.983,5.803 3.37,5.415 3.675,4.965 3.899,4.453 4.122,3.94 4.234,3.395 4.234,2.817 4.234,2.241 4.122,1.695 3.899,1.183 3.675,0.67 3.372,0.221 2.99,-0.165 2.606,-0.552 2.158,-0.856 1.641,-1.081 1.125,-1.304 0.577,-1.417 0,-1.417 h -2.819 z" /></g><g
           transform="translate(58.1052,39.5887)"
           id="g24"><path
             id="path26"
             style="fill:#2b2b2a;fill-opacity:1;fill-rule:nonzero;stroke:none"
             d="M 0,0 V -1.414 H -4.235 V -3.538 H 0 v -1.404 h -4.235 v -2.11 H 0 V -8.469 H -5.638 V 0 Z" /></g><g
           transform="translate(62.4363,39.5887)"
           id="g28"><path
             id="path30"
             style="fill:#2b2b2a;fill-opacity:1;fill-rule:nonzero;stroke:none"
             d="M 0,0 2.661,-5.307 5.322,0 H 6.895 L 2.661,-8.469 -1.573,0 Z" /></g><g
           transform="translate(77.7278,39.5887)"
           id="g32"><path
             id="path34"
             style="fill:#2b2b2a;fill-opacity:1;fill-rule:nonzero;stroke:none"
             d="M 0,0 V -1.414 H -4.235 V -3.538 H 0 v -1.404 h -4.235 v -2.11 H 0 V -8.469 H -5.638 V 0 Z" /></g><g
           transform="translate(80.4856,39.5887)"
           id="g36"><path
             id="path38"
             style="fill:#2b2b2a;fill-opacity:1;fill-rule:nonzero;stroke:none"
             d="M 0,0 H 1.403 V -7.052 H 5.638 V -8.469 H 0 Z" /></g><g
           transform="translate(92.1145,38.1746)"
           id="g40"><path
             id="path42"
             style="fill:#2b2b2a;fill-opacity:1;fill-rule:nonzero;stroke:none"
             d="m 0,0 c -0.772,0 -1.44,-0.277 -2.001,-0.831 -0.545,-0.554 -0.818,-1.216 -0.818,-1.989 0,-0.773 0.273,-1.439 0.818,-2.001 0.561,-0.546 1.229,-0.817 2.001,-0.817 0.773,0 1.436,0.271 1.989,0.817 0.553,0.562 0.83,1.228 0.83,2.001 0,0.773 -0.277,1.435 -0.83,1.989 C 1.436,-0.277 0.773,0 0,0 M 0,1.414 C 1.172,1.414 2.168,1 2.99,0.171 3.828,-0.66 4.247,-1.655 4.247,-2.82 4.247,-3.999 3.828,-4.996 2.99,-5.809 2.168,-6.64 1.172,-7.055 0,-7.055 c -1.171,0 -2.168,0.415 -2.99,1.246 -0.83,0.821 -1.244,1.819 -1.244,2.989 0,1.165 0.414,2.16 1.244,2.991 C -2.176,1 -1.18,1.414 0,1.414" /></g><g
           transform="translate(100.5217,38.1746)"
           id="g44"><path
             id="path46"
             style="fill:#2b2b2a;fill-opacity:1;fill-rule:nonzero;stroke:none"
             d="m 0,0 v -2.82 h 2.832 c 0.382,0 0.712,0.137 0.988,0.415 0.277,0.276 0.415,0.605 0.415,0.989 0,0.39 -0.138,0.725 -0.415,1 C 3.544,-0.14 3.214,0 2.832,0 Z M 0,-4.236 V -7.055 H -1.403 V 1.414 H 2.832 C 3.604,1.414 4.268,1.138 4.821,0.585 5.374,0.031 5.65,-0.635 5.65,-1.416 5.65,-2.188 5.374,-2.855 4.821,-3.418 4.268,-3.964 3.604,-4.236 2.832,-4.236 Z" /></g><g
           transform="translate(110.3337,36.1854)"
           id="g48"><path
             id="path50"
             style="fill:#2b2b2a;fill-opacity:1;fill-rule:nonzero;stroke:none"
             d="M 0,0 V -5.065 H -1.403 V 3.403 L 2.832,-0.831 7.078,3.403 V -5.065 H 5.65 L 5.65,0 2.832,-2.832 Z" /></g><g
           transform="translate(125.8074,39.5887)"
           id="g52"><path
             id="path54"
             style="fill:#2b2b2a;fill-opacity:1;fill-rule:nonzero;stroke:none"
             d="M 0,0 V -1.414 H -4.235 V -3.538 H 0 v -1.404 h -4.235 v -2.11 H 0 V -8.469 H -5.638 V 0 Z" /></g><g
           transform="translate(128.5652,39.6014)"
           id="g56"><path
             id="path58"
             style="fill:#2b2b2a;fill-opacity:1;fill-rule:nonzero;stroke:none"
             d="M 0,0 5.638,-5.076 V 0 h 1.415 v -8.469 0.013 -0.025 l -5.65,5.076 v -5.064 l -1.403,0 z" /></g><g
           transform="translate(138.3757,39.5887)"
           id="g60"><path
             id="path62"
             style="fill:#2b2b2a;fill-opacity:1;fill-rule:nonzero;stroke:none"
             d="M 0,0 H 7.066 V -1.414 H 4.247 V -8.469 H 2.831 v 7.055 l -2.831,0 z" /></g><g
           transform="translate(155.2161,33.9383)"
           id="g64"><path
             id="path66"
             style="fill:#2b2b2a;fill-opacity:1;fill-rule:nonzero;stroke:none"
             d="M 0,0 H 2.489 L 1.245,2.491 Z m 3.197,-1.401 h -3.893 l -0.72,-1.417 H -2.99 L 1.245,5.65 5.479,-2.818 H 3.905 Z" /></g><g
           transform="translate(163.4534,39.6014)"
           id="g68"><path
             id="path70"
             style="fill:#2b2b2a;fill-opacity:1;fill-rule:nonzero;stroke:none"
             d="M 0,0 5.638,-5.076 V 0 h 1.415 v -8.469 0.013 -0.025 l -5.65,5.076 v -5.064 l -1.403,0 z" /></g><g
           transform="translate(176.0833,32.5369)"
           id="g72"><path
             id="path74"
             style="fill:#2b2b2a;fill-opacity:1;fill-rule:nonzero;stroke:none"
             d="m 0,0 c 0.773,0 1.435,0.271 1.989,0.816 0.553,0.563 0.83,1.229 0.83,2.001 0,0.774 -0.277,1.436 -0.83,1.99 C 1.435,5.36 0.773,5.638 0,5.638 H -1.416 V 0 Z M -2.819,7.052 H 0 C 1.171,7.052 2.168,6.638 2.99,5.809 3.82,4.978 4.234,3.982 4.234,2.817 4.234,1.647 3.82,0.649 2.99,-0.171 2.168,-1.002 1.171,-1.417 0,-1.417 h -2.819 z" /></g><g
           transform="translate(188.5051,36.1854)"
           id="g76"><path
             id="path78"
             style="fill:#2b2b2a;fill-opacity:1;fill-rule:nonzero;stroke:none"
             d="M 0,0 V -5.065 H -1.403 V 3.403 L 2.831,-0.831 7.078,3.403 V -5.065 H 5.65 L 5.65,0 2.831,-2.832 Z" /></g><g
           transform="translate(201.3318,33.9383)"
           id="g80"><path
             id="path82"
             style="fill:#2b2b2a;fill-opacity:1;fill-rule:nonzero;stroke:none"
             d="M 0,0 H 2.489 L 1.244,2.491 Z M 3.197,-1.401 H -0.696 L -1.417,-2.818 H -2.99 L 1.244,5.65 5.479,-2.818 H 3.905 Z" /></g><g
           transform="translate(213.802,38.1746)"
           id="g84"><path
             id="path86"
             style="fill:#2b2b2a;fill-opacity:1;fill-rule:nonzero;stroke:none"
             d="M 0,0 H -2.832 V -2.808 L 0,-2.82 c 0.382,0 0.712,0.137 0.988,0.415 0.278,0.276 0.416,0.61 0.416,1.002 0,0.381 -0.138,0.712 -0.416,0.987 C 0.712,-0.14 0.382,0 0,0 m 1.196,-7.055 -1.635,2.819 H -2.832 V -7.055 H -4.234 V 1.414 H 0 c 0.773,0 1.436,-0.276 1.989,-0.829 0.553,-0.554 0.83,-1.216 0.83,-1.988 0,-0.586 -0.167,-1.119 -0.5,-1.6 -0.326,-0.471 -0.74,-0.809 -1.245,-1.013 l 1.745,-3.039 z" /></g><g
           transform="translate(222.199,35.3543)"
           id="g88"><path
             id="path90"
             style="fill:#2b2b2a;fill-opacity:1;fill-rule:nonzero;stroke:none"
             d="M 0,0 4.234,-4.234 H 2.245 l -3.662,3.636 v -3.636 h -1.402 v 8.468 h 1.402 V 0.586 l 3.662,3.648 h 1.989 z" /></g><g
           transform="translate(234.8289,39.5887)"
           id="g92"><path
             id="path94"
             style="fill:#2b2b2a;fill-opacity:1;fill-rule:nonzero;stroke:none"
             d="M 0,0 V -1.414 H -4.235 V -3.538 H 0 v -1.404 h -4.235 v -2.11 H 0 V -8.469 H -5.638 V 0 Z" /></g><g
           transform="translate(237.5862,39.5887)"
           id="g96"><path
             id="path98"
             style="fill:#2b2b2a;fill-opacity:1;fill-rule:nonzero;stroke:none"
             d="M 0,0 H 7.066 V -1.414 H 4.247 V -8.469 H 2.831 v 7.055 l -2.831,0 z" /></g><path
           id="path100"
           style="fill:#2b2b2a;fill-opacity:1;fill-rule:nonzero;stroke:none"
           d="m 247.409,39.589 h 1.403 V 31.12 h -1.403 z" /><g
           transform="translate(251.571,39.6014)"
           id="g102"><path
             id="path104"
             style="fill:#2b2b2a;fill-opacity:1;fill-rule:nonzero;stroke:none"
             d="M 0,0 5.638,-5.076 V 0 h 1.415 v -8.469 0.013 -0.025 l -5.65,5.076 v -5.064 l -1.403,0 z" /></g><g
           transform="translate(265.616,39.5887)"
           id="g106"><path
             id="path108"
             style="fill:#2b2b2a;fill-opacity:1;fill-rule:nonzero;stroke:none"
             d="M 0,0 C 0.586,0 1.135,-0.11 1.647,-0.329 2.16,-0.548 2.612,-0.854 3.002,-1.243 L 1.989,-2.245 C 1.444,-1.691 0.781,-1.414 0,-1.414 c -0.772,0 -1.44,-0.277 -2.001,-0.831 -0.545,-0.554 -0.818,-1.216 -0.818,-1.989 0,-0.773 0.273,-1.439 0.818,-2.001 0.561,-0.546 1.229,-0.817 2.001,-0.817 0.423,0 0.815,0.083 1.178,0.25 0.361,0.166 0.677,0.4 0.946,0.701 v 1.159 H 0 v 1.404 H 3.539 V -6.564 C 3.344,-6.85 3.118,-7.11 2.862,-7.346 2.605,-7.581 2.327,-7.783 2.025,-7.949 1.725,-8.116 1.404,-8.245 1.062,-8.335 0.72,-8.425 0.367,-8.469 0,-8.469 c -1.171,0 -2.168,0.415 -2.99,1.246 -0.83,0.821 -1.244,1.819 -1.244,2.989 0,1.165 0.414,2.16 1.244,2.991 C -2.168,-0.414 -1.171,0 0,0" /></g><g
           transform="translate(247.5081,52.3162)"
           id="g110"><path
             id="path112"
             style="fill:#ffe500;fill-opacity:1;fill-rule:nonzero;stroke:none"
             d="m 0,0 h -139.866 l -43.339,86.643 h 139.866 z" /></g><g
           transform="translate(62.8474,95.5926)"
           id="g114"><path
             id="path116"
             style="fill:#2b2b2a;fill-opacity:1;fill-rule:nonzero;stroke:none"
             d="M 0,0 30.331,-30.331 H 16.084 L -10.14,-4.283 V -30.331 H -20.192 V 30.333 H -10.14 V 4.197 l 26.224,26.136 h 14.247 z" /></g><g
           transform="translate(238.8245,95.5926)"
           id="g118"><path
             id="path120"
             style="fill:#2b2b2a;fill-opacity:1;fill-rule:nonzero;stroke:none"
             d="M 0,0 30.331,-30.331 H 16.084 L -10.14,-4.283 V -30.331 H -20.192 V 30.333 H -10.14 V 4.197 l 26.224,26.136 h 14.247 z" /></g><g
           transform="translate(126.032,134.3279)"
           id="g122"><path
             id="path124"
             style="fill:#2b2b2a;fill-opacity:1;fill-rule:nonzero;stroke:none"
             d="M 0,0 -1.298,-18.332 H -5.423 L -6.645,0 Z" /></g><g
           transform="translate(192.5002,134.3279)"
           id="g126"><path
             id="path128"
             style="fill:#2b2b2a;fill-opacity:1;fill-rule:nonzero;stroke:none"
             d="M 0,0 -1.298,-18.332 H -5.423 L -6.645,0 Z" /></g><g
           transform="translate(165.8396,117.6014)"
           id="g130"><path
             id="path132"
             style="fill:#2b2b2a;fill-opacity:1;fill-rule:nonzero;stroke:none"
             d="M 0,0 V -24.662 L -28.315,0.832 v -44.7 h 8.385 v 24.604 L 7.332,-43.758 8.446,-44.637 V 0 Z" /></g></g></g></g></svg>